<?xml version="1.0" standalone="no"?>
<!DOCTYPE svg PUBLIC "-//W3C//DTD SVG 20010904//EN"
 "http://www.w3.org/TR/2001/REC-SVG-20010904/DTD/svg10.dtd">
<svg version="1.0" xmlns="http://www.w3.org/2000/svg"
 width="667.000000pt" height="113.000000pt" viewBox="0 0 667.000000 113.000000"
 preserveAspectRatio="xMidYMid meet">

<g transform="translate(0.000000,113.000000) scale(0.100000,-0.100000)"
fill="#000000" stroke="none">
<path d="M337 881 c-109 -26 -198 -51 -199 -56 0 -6 17 -19 38 -30 28 -15 40
-27 42 -47 3 -23 -3 -29 -45 -48 -26 -11 -51 -26 -55 -33 -10 -16 18 -44 58
-57 36 -12 57 -39 46 -57 -4 -7 -30 -20 -57 -30 -71 -26 -70 -45 4 -83 51 -25
61 -35 61 -56 0 -21 -9 -29 -55 -50 -30 -14 -55 -31 -55 -37 0 -12 388 -212
396 -204 2 2 -83 48 -190 103 -107 54 -192 102 -188 105 4 3 20 11 36 18 26
11 28 10 17 -3 -11 -13 -9 -17 10 -25 13 -5 91 -41 172 -80 82 -39 155 -71
163 -71 25 0 409 163 432 183 30 27 30 80 0 101 -19 14 -19 16 -5 22 27 10 44
-2 51 -36 8 -41 -2 -79 -27 -107 -16 -18 -228 -117 -423 -199 -20 -8 -34 -17
-32 -20 3 -2 105 40 228 93 241 106 257 117 267 192 5 34 1 48 -16 72 -20 27
-21 31 -6 58 20 39 19 100 -1 129 -14 21 -14 25 0 47 32 49 14 135 -33 160
-15 7 -73 23 -131 35 -58 12 -142 30 -188 41 -45 10 -90 18 -100 18 -9 -1
-106 -22 -215 -48z m278 25 c60 -11 314 -66 332 -72 52 -19 74 -76 53 -138
-12 -38 -44 -62 -127 -95 -45 -18 -52 -18 -57 -5 -9 23 -4 27 69 54 65 24 96
51 102 89 3 25 -25 61 -48 61 -12 0 -107 -27 -211 -60 -104 -33 -195 -60 -202
-60 -28 0 -380 139 -366 144 38 15 397 94 410 91 8 -2 29 -6 45 -9z m339 -122
c22 -8 21 -67 -1 -87 -10 -8 -46 -26 -81 -40 l-62 -26 -11 21 c-11 20 0 37 25
38 5 0 7 3 3 6 -7 7 -168 -44 -182 -58 -7 -7 -3 -8 11 -4 17 5 23 1 27 -16 4
-12 3 -26 -1 -30 -7 -6 -112 -48 -122 -48 -3 0 -5 30 -4 67 l1 67 179 57 c193
62 194 62 218 53z m-568 -68 c127 -46 150 -58 157 -79 9 -27 -8 -107 -22 -107
-4 0 -81 32 -169 71 l-162 71 25 30 c17 20 23 37 20 49 -4 11 -4 19 -2 19 2 0
71 -24 153 -54z m-211 -38 c-3 -9 56 -40 172 -90 l176 -76 81 30 c102 37 100
37 104 12 2 -18 -10 -26 -85 -58 -48 -20 -94 -36 -100 -36 -25 0 -393 183
-393 195 0 9 25 27 47 34 1 1 0 -5 -2 -11z m624 -76 c11 -37 32 -83 46 -102
14 -18 25 -34 25 -35 0 -1 -13 0 -29 3 -27 4 -30 1 -33 -29 l-3 -34 -20 22
c-19 20 -101 211 -93 218 6 5 63 23 75 24 7 1 21 -29 32 -67z m204 -15 c18
-74 -16 -126 -110 -168 -34 -16 -65 -29 -68 -29 -3 0 -5 14 -5 31 0 29 2 30
37 27 51 -4 112 51 120 109 3 22 1 43 -4 46 -6 4 -8 -4 -5 -18 7 -38 -16 -81
-51 -99 -37 -17 -49 -11 -77 45 l-19 37 57 22 c31 12 64 26 72 30 27 16 44 5
53 -33z m-486 -138 c18 -7 23 -16 23 -46 0 -75 -3 -74 -184 11 l-165 79 24 29
c14 16 25 36 25 43 0 9 43 -7 127 -47 70 -33 137 -64 150 -69z m-337 56 c-11
-13 12 -27 164 -100 98 -47 183 -85 190 -85 6 0 63 21 126 46 99 40 116 44
137 33 21 -12 13 -17 -119 -71 l-143 -59 -190 95 c-104 52 -199 102 -210 110
-19 14 -19 15 15 30 44 19 45 19 30 1z m567 -34 l20 -48 -112 -45 -111 -45 2
61 3 60 78 32 c43 19 83 33 89 34 5 0 19 -22 31 -49z m231 -86 c2 -22 -4 -37
-20 -51 -18 -17 -379 -174 -398 -174 -3 0 -6 24 -6 53 l-1 52 181 77 c202 85
239 92 244 43z m-584 -60 c154 -81 171 -98 144 -149 l-13 -24 -161 75 -162 76
24 34 c12 19 20 41 17 49 -3 8 -2 14 1 14 3 0 71 -34 150 -75z"/>
<path d="M4790 594 l0 -265 36 3 35 3 0 225 c0 124 -1 242 -1 263 0 36 -1 37
-35 37 l-35 0 0 -266z"/>
<path d="M1380 590 l0 -260 115 0 c95 0 123 3 154 20 89 45 110 171 42 249
-19 21 -19 25 -4 47 20 31 22 89 4 131 -22 53 -77 73 -204 73 l-107 0 0 -260z
m234 174 c20 -20 20 -63 0 -92 -13 -19 -24 -22 -90 -22 l-74 0 0 65 0 65 74 0
c54 0 79 -4 90 -16z m26 -216 c25 -42 25 -74 0 -115 -22 -36 -55 -46 -135 -41
l-50 3 -3 93 -3 92 86 0 85 0 20 -32z"/>
<path d="M2670 590 l0 -260 35 0 35 0 0 63 c0 49 4 68 18 80 10 10 21 17 24
17 3 0 33 -36 67 -80 62 -79 63 -80 107 -80 l45 0 -85 104 -85 104 77 64 77
63 -53 3 c-51 3 -54 2 -115 -52 -34 -31 -65 -56 -69 -56 -5 0 -8 65 -8 145 l0
145 -35 0 -35 0 0 -260z"/>
<path d="M3410 829 c-55 -25 -105 -71 -133 -124 -30 -56 -30 -173 0 -231 49
-92 135 -146 232 -145 86 0 122 12 169 54 l22 21 -21 22 -22 23 -29 -24 c-54
-46 -163 -47 -222 -2 -82 63 -102 206 -40 283 42 52 73 73 116 80 51 9 99 -2
141 -30 l35 -24 21 22 c20 22 21 23 3 39 -62 57 -189 74 -272 36z"/>
<path d="M4180 725 c0 -52 -1 -55 -26 -55 -22 0 -25 -4 -22 -27 2 -20 9 -29
26 -31 21 -3 22 -7 22 -103 0 -135 22 -174 105 -183 37 -4 55 9 55 40 0 21 -4
23 -24 18 -17 -4 -31 1 -45 15 -18 18 -21 33 -21 115 l0 95 43 3 c38 3 42 6
45 31 3 26 2 27 -42 27 l-46 0 0 55 0 55 -35 0 -35 0 0 -55z"/>
<path d="M1942 665 c-52 -16 -78 -38 -103 -87 -24 -47 -24 -101 0 -154 54
-119 222 -131 304 -22 24 33 33 114 18 161 -15 45 -68 93 -118 106 -46 13 -47
13 -101 -4z m131 -88 c49 -56 26 -163 -41 -188 -62 -24 -142 33 -142 102 0
113 113 167 183 86z"/>
<path d="M2357 666 c-74 -27 -117 -86 -117 -160 0 -109 69 -179 176 -178 94 1
174 80 174 172 0 116 -126 205 -233 166z m91 -57 c40 -14 65 -53 66 -105 3
-111 -111 -163 -179 -82 -48 57 -26 162 39 188 29 12 38 12 74 -1z"/>
<path d="M3893 670 c-36 -8 -83 -36 -83 -49 0 -4 9 -16 20 -26 18 -16 20 -16
46 4 50 39 129 18 122 -33 -3 -19 -10 -21 -73 -24 -87 -4 -115 -17 -137 -62
-37 -76 18 -150 110 -150 24 0 56 7 72 15 27 14 30 14 30 0 0 -11 10 -15 35
-15 l35 0 0 134 c0 122 -2 136 -22 161 -22 29 -75 56 -105 54 -10 -1 -33 -4
-50 -9z m107 -214 c0 -59 -60 -91 -124 -66 -21 8 -26 16 -26 45 0 43 19 53 98
54 l52 1 0 -34z"/>
<path d="M4514 667 c-17 -7 -42 -19 -55 -29 l-24 -16 22 -23 21 -22 28 22 c50
40 124 20 124 -33 0 -21 -4 -22 -69 -24 -110 -2 -151 -32 -151 -109 0 -40 21
-73 57 -92 31 -16 99 -14 133 4 27 14 30 14 30 0 0 -11 10 -15 35 -15 l35 0 0
134 c0 122 -2 136 -22 161 -38 49 -102 65 -164 42z m116 -209 c0 -39 -7 -51
-37 -67 -49 -26 -113 -3 -113 40 0 39 33 59 97 59 l53 0 0 -32z"/>
<path d="M5091 670 c-78 -18 -131 -86 -131 -167 0 -58 9 -83 44 -121 78 -87
228 -67 284 38 70 131 -51 284 -197 250z m77 -61 c42 -14 66 -54 66 -109 0
-110 -111 -158 -179 -78 -48 57 -26 162 39 188 29 12 38 12 74 -1z"/>
<path d="M5467 658 c-127 -65 -129 -250 -4 -314 34 -18 117 -20 147 -4 29 15
34 8 25 -36 -9 -50 -63 -104 -103 -104 -16 0 -42 10 -56 21 l-28 22 -20 -21
c-26 -25 -17 -39 39 -64 67 -30 122 -19 178 35 27 26 47 57 54 82 6 22 11 120
11 218 l0 177 -34 0 c-19 0 -36 -5 -38 -10 -2 -7 -17 -5 -41 5 -45 19 -85 17
-130 -7z m121 -49 c42 -14 66 -67 59 -128 -4 -36 -12 -52 -38 -73 -38 -32 -55
-34 -104 -14 -83 35 -85 175 -3 211 40 17 47 18 86 4z"/>
<path d="M6325 671 c-73 -18 -120 -68 -131 -137 -12 -79 24 -157 88 -190 55
-29 189 -13 213 26 4 6 -1 20 -11 31 -18 20 -44 26 -44 10 0 -16 -59 -33 -93
-27 -37 7 -73 40 -79 71 -3 19 3 20 87 22 194 3 175 -1 175 36 0 46 -39 118
-75 139 -38 21 -91 29 -130 19z m105 -77 c10 -11 21 -29 25 -41 6 -23 5 -23
-89 -23 -85 0 -96 2 -96 18 1 21 18 45 45 59 29 16 94 9 115 -13z"/>
<path d="M5802 538 c3 -144 13 -173 64 -196 42 -20 118 -15 148 9 l26 20 0
-20 c0 -17 6 -21 35 -21 l35 0 0 160 c0 88 1 163 3 168 1 4 -15 8 -35 10 l-38
3 0 -116 c0 -117 0 -117 -30 -147 -27 -26 -36 -30 -67 -25 -62 10 -68 23 -71
162 l-4 125 -35 0 -35 0 4 -132z"/>
</g>
</svg>
